<svg width="30" height="30" viewBox="0 0 30 30" fill="none" xmlns="http://www.w3.org/2000/svg">
<g clip-path="url(#clip0_3482_2130)">
<path d="M15 6.16992C12.17 6.16992 9.85999 8.46991 9.85999 11.2999C9.85999 14.14 12.17 16.4399 15 16.4399C17.83 16.4399 20.14 14.1399 20.14 11.2999C20.14 8.46991 17.83 6.16992 15 6.16992Z" fill="#CEC9BD"/>
<path d="M14.99 0.0100098C6.73004 0.0100098 0 6.72998 0 15C0 19.6 2.09003 23.72 5.35999 26.47V26.48C7.97004 28.67 11.33 29.99 14.99 29.99C20.21 29.99 24.97 27.35 27.73 22.92C29.22 20.54 30 17.81 30 15C30 12.19 29.22 9.45001 27.73 7.07996C24.97 2.64996 20.21 0.0100098 14.99 0.0100098ZM26.04 21.86C25.56 22.63 25 23.31 24.39 23.95C22.87 20.83 19.64 18.75 16.07 18.75H13.93C11.45 18.75 9.12 19.72 7.37 21.47C6.64001 22.19 6.06 23.04 5.60999 23.96C3.38 21.63 2 18.48 2 15C2 7.83997 7.83002 2.01001 14.99 2.01001C19.52 2.01001 23.64 4.29999 26.04 8.14001C27.32 10.2 28 12.57 28 15C28 17.43 27.32 19.8 26.04 21.86Z" fill="#CEC9BD"/>
</g>
<defs>
<clipPath id="clip0_3482_2130">
<rect width="30" height="30" fill="white"/>
</clipPath>
</defs>
</svg>
