<svg width="28" height="28" viewBox="0 0 28 28" fill="none" xmlns="http://www.w3.org/2000/svg">
<g clip-path="url(#clip0_3482_2102)">
<path d="M3.59375 12.8438H9.375C10.295 12.8438 11.1773 12.4783 11.8278 11.8278C12.4783 11.1773 12.8438 10.295 12.8438 9.375V3.59375C12.8438 2.67378 12.4783 1.79149 11.8278 1.14097C11.1773 0.490457 10.295 0.125 9.375 0.125H3.59375C2.67378 0.125 1.79149 0.490457 1.14097 1.14097C0.490457 1.79149 0.125 2.67378 0.125 3.59375V9.375C0.125 10.295 0.490457 11.1773 1.14097 11.8278C1.79149 12.4783 2.67378 12.8438 3.59375 12.8438ZM2.4375 3.59375C2.4375 3.28709 2.55932 2.993 2.77616 2.77616C2.993 2.55932 3.28709 2.4375 3.59375 2.4375H9.375C9.68166 2.4375 9.97575 2.55932 10.1926 2.77616C10.4094 2.993 10.5312 3.28709 10.5312 3.59375V9.375C10.5312 9.68166 10.4094 9.97575 10.1926 10.1926C9.97575 10.4094 9.68166 10.5312 9.375 10.5312H3.59375C3.28709 10.5312 2.993 10.4094 2.77616 10.1926C2.55932 9.97575 2.4375 9.68166 2.4375 9.375V3.59375Z" fill="#CEC9BD"/>
<path d="M18.625 12.8438H24.4062C25.3262 12.8438 26.2085 12.4783 26.859 11.8278C27.5095 11.1773 27.875 10.295 27.875 9.375V3.59375C27.875 2.67378 27.5095 1.79149 26.859 1.14097C26.2085 0.490457 25.3262 0.125 24.4062 0.125H18.625C17.705 0.125 16.8227 0.490457 16.1722 1.14097C15.5217 1.79149 15.1563 2.67378 15.1562 3.59375V9.375C15.1563 10.295 15.5217 11.1773 16.1722 11.8278C16.8227 12.4783 17.705 12.8438 18.625 12.8438ZM17.4688 3.59375C17.4688 3.28709 17.5906 2.993 17.8074 2.77616C18.0242 2.55932 18.3183 2.4375 18.625 2.4375H24.4062C24.7129 2.4375 25.007 2.55932 25.2238 2.77616C25.4407 2.993 25.5625 3.28709 25.5625 3.59375V9.375C25.5625 9.68166 25.4407 9.97575 25.2238 10.1926C25.007 10.4094 24.7129 10.5312 24.4062 10.5312H18.625C18.3183 10.5312 18.0242 10.4094 17.8074 10.1926C17.5906 9.97575 17.4688 9.68166 17.4688 9.375V3.59375Z" fill="#CEC9BD"/>
<path d="M3.59375 27.875H9.375C10.295 27.875 11.1773 27.5095 11.8278 26.859C12.4783 26.2085 12.8438 25.3262 12.8438 24.4062V18.625C12.8438 17.705 12.4783 16.8227 11.8278 16.1722C11.1773 15.5217 10.295 15.1563 9.375 15.1562H3.59375C2.67378 15.1563 1.79149 15.5217 1.14097 16.1722C0.490457 16.8227 0.125 17.705 0.125 18.625V24.4062C0.125 25.3262 0.490457 26.2085 1.14097 26.859C1.79149 27.5095 2.67378 27.875 3.59375 27.875ZM2.4375 18.625C2.4375 18.3183 2.55932 18.0242 2.77616 17.8074C2.993 17.5906 3.28709 17.4688 3.59375 17.4688H9.375C9.68166 17.4688 9.97575 17.5906 10.1926 17.8074C10.4094 18.0242 10.5312 18.3183 10.5312 18.625V24.4062C10.5312 24.7129 10.4094 25.007 10.1926 25.2238C9.97575 25.4407 9.68166 25.5625 9.375 25.5625H3.59375C3.28709 25.5625 2.993 25.4407 2.77616 25.2238C2.55932 25.007 2.4375 24.7129 2.4375 24.4062V18.625Z" fill="#CEC9BD"/>
<path d="M15.1562 24.4062C15.1563 25.3262 15.5217 26.2085 16.1722 26.859C16.8227 27.5095 17.705 27.875 18.625 27.875H24.4062C25.3262 27.875 26.2085 27.5095 26.859 26.859C27.5095 26.2085 27.875 25.3262 27.875 24.4062V18.625C27.875 17.705 27.5095 16.8227 26.859 16.1722C26.2085 15.5217 25.3262 15.1563 24.4062 15.1562H18.625C17.705 15.1563 16.8227 15.5217 16.1722 16.1722C15.5217 16.8227 15.1563 17.705 15.1562 18.625V24.4062ZM17.4688 18.625C17.4688 18.3183 17.5906 18.0242 17.8074 17.8074C18.0242 17.5906 18.3183 17.4688 18.625 17.4688H24.4062C24.7129 17.4688 25.007 17.5906 25.2238 17.8074C25.4407 18.0242 25.5625 18.3183 25.5625 18.625V24.4062C25.5625 24.7129 25.4407 25.007 25.2238 25.2238C25.007 25.4407 24.7129 25.5625 24.4062 25.5625H18.625C18.3183 25.5625 18.0242 25.4407 17.8074 25.2238C17.5906 25.007 17.4688 24.7129 17.4688 24.4062V18.625Z" fill="#CEC9BD"/>
</g>
<defs>
<clipPath id="clip0_3482_2102">
<rect width="28" height="28" fill="white"/>
</clipPath>
</defs>
</svg>
