<svg width="31" height="31" viewBox="0 0 31 31" fill="none" xmlns="http://www.w3.org/2000/svg">
<path d="M27.1433 3.61776C27.0102 2.29203 25.9052 1.29175 24.5726 1.29175H6.24389C4.91122 1.29175 3.80624 2.29203 3.67317 3.61776L1.34842 26.8678C1.27589 27.5918 1.51429 28.3184 2.00308 28.8582C2.49187 29.3981 3.19005 29.7084 3.91851 29.7084H26.8973C27.6264 29.7084 28.3246 29.3981 28.8134 28.8582C29.3021 28.3184 29.5406 27.5918 29.468 26.8678L27.1433 3.61776ZM3.91914 27.1251L6.24389 3.87508H24.5726L26.8998 27.1251H3.91914Z" fill="#CEC9BD"/>
<path d="M19.375 6.45825C17.9503 6.45825 16.7917 7.61747 16.7917 9.04159C16.7917 9.99323 17.3149 10.8173 18.0834 11.2656V14.2083C18.0834 15.6324 16.9248 16.7916 15.5 16.7916C14.0753 16.7916 12.9167 15.6324 12.9167 14.2083V11.2656C13.6851 10.8173 14.2084 9.99323 14.2084 9.04159C14.2084 7.61747 13.0498 6.45825 11.625 6.45825C10.2003 6.45825 9.04169 7.61747 9.04169 9.04159C9.04169 9.99323 9.56493 10.8173 10.3334 11.2656V14.2083C10.3334 17.0577 12.6512 19.3749 15.5 19.3749C18.3489 19.3749 20.6667 17.0577 20.6667 14.2083V11.2656C21.4351 10.8173 21.9584 9.99323 21.9584 9.04159C21.9584 7.61747 20.7998 6.45825 19.375 6.45825Z" fill="#CEC9BD"/>
</svg>
