<svg width="37" height="37" viewBox="0 0 37 37" fill="none" xmlns="http://www.w3.org/2000/svg">
<g clip-path="url(#clip0_3482_2111)">
<path d="M26.5549 5.03491C20.9284 3.52731 15.1452 6.86623 13.6376 12.4927C12.3821 17.1785 14.4951 21.9639 18.4844 24.3069C18.6969 23.9069 18.8813 23.4856 19.0035 23.0296C19.1303 22.5562 19.1872 22.0816 19.1998 21.6121C16.6241 19.7427 15.3129 16.4281 16.1845 13.1751C17.3135 8.96184 21.6592 6.45284 25.8724 7.58178C30.0857 8.71072 32.5947 13.0564 31.4658 17.2697C30.6507 20.3115 28.1519 22.4401 25.2437 22.9776C25.1743 23.5253 25.093 24.074 24.9462 24.6219C24.8421 25.0104 24.6841 25.3679 24.546 25.737C28.9178 25.4371 32.8151 22.4215 34.0126 17.9521C35.5202 12.3257 32.1813 6.54251 26.5549 5.03491Z" fill="#CEC9BD"/>
<path d="M18.2618 12.4377C18.0458 12.8353 17.8613 13.256 17.7389 13.7129C17.6121 14.1861 17.5579 14.6617 17.548 15.1336C20.1203 17.0037 21.4289 20.3165 20.5579 23.5673C19.4289 27.7806 15.0832 30.2896 10.8699 29.1606C6.65667 28.0317 4.14767 23.686 5.27662 19.4727C6.08997 16.4372 8.58039 14.3121 11.4808 13.7691C11.5493 13.2183 11.6496 12.6676 11.7962 12.1205C11.8996 11.7345 12.0467 11.3734 12.1838 11.0066C7.81733 11.3114 3.92617 14.3252 2.72974 18.7903C1.22214 24.4167 4.56106 30.1999 10.1875 31.7075C15.8139 33.2151 21.5971 29.8762 23.1047 24.2497C24.3599 19.5654 22.2488 14.7815 18.2618 12.4377Z" fill="#CEC9BD"/>
</g>
<defs>
<clipPath id="clip0_3482_2111">
<rect width="30" height="30" fill="white" transform="translate(7.76459) rotate(15)"/>
</clipPath>
</defs>
</svg>
