<svg width="31" height="29" viewBox="0 0 31 29" fill="none" xmlns="http://www.w3.org/2000/svg">
<g clip-path="url(#clip0_3482_2119)">
<path d="M8.58841 21.548L8.58843 21.5481C11.5811 24.2103 14.5447 26.126 15.499 26.7201C16.4487 26.1247 19.3912 24.2096 22.3716 21.5488C24.4763 19.6697 26.1231 17.8389 27.2922 16.1137L27.2922 16.1137C28.8052 13.881 29.4891 11.8636 29.4999 10.0994C29.5137 7.85677 28.6719 5.72018 27.2407 4.23467L27.2407 4.23466C25.9398 2.88437 24.283 2.17334 22.5775 2.17334C20.2786 2.17334 18.0926 3.50347 16.8005 5.75075L15.5001 8.01262L14.1997 5.75073C12.9077 3.50342 10.7216 2.17334 8.42276 2.17334C6.6195 2.17334 4.89813 2.95801 3.57311 4.45948C2.26454 5.94237 1.5135 7.94115 1.50019 10.1059L8.58841 21.548ZM8.58841 21.548C6.47595 19.6689 4.82818 17.8384 3.66415 16.1144L3.66414 16.1144M8.58841 21.548L3.66414 16.1144M3.66414 16.1144C2.15664 13.8818 1.48945 11.8671 1.50019 10.106L3.66414 16.1144Z" stroke="#CEC9BD" stroke-width="3"/>
</g>
<defs>
<clipPath id="clip0_3482_2119">
<rect width="31" height="29" fill="white"/>
</clipPath>
</defs>
</svg>
